<svg width="74" height="60" viewBox="0 0 74 60" xmlns="http://www.w3.org/2000/svg" xmlns:xlink="http://www.w3.org/1999/xlink"><title>twitter</title><defs><path id="a" d="M.016 59.984V.22h73.542v59.763z"/></defs><g fill="none" fill-rule="evenodd"><mask id="b" fill="#fff"><use xlink:href="#a"/></mask><path d="M73.558 7.298a30.174 30.174 0 0 1-8.668 2.376 15.137 15.137 0 0 0 6.636-8.35 30.223 30.223 0 0 1-9.583 3.663A15.072 15.072 0 0 0 50.927.221c-8.335 0-15.092 6.757-15.092 15.091 0 1.183.134 2.335.391 3.44-12.542-.63-23.662-6.638-31.105-15.768a15.02 15.02 0 0 0-2.044 7.586c0 5.236 2.665 9.855 6.714 12.561a15.031 15.031 0 0 1-6.835-1.887c-.001.063-.001.126-.001.19 0 7.312 5.202 13.411 12.105 14.797a15.112 15.112 0 0 1-6.815.259c1.92 5.996 7.494 10.359 14.097 10.48A30.28 30.28 0 0 1 3.6 53.43a30.7 30.7 0 0 1-3.6-.21A42.716 42.716 0 0 0 23.134 60C50.892 60 66.07 37.004 66.07 17.062c0-.654-.014-1.305-.044-1.952a30.673 30.673 0 0 0 7.53-7.812" fill="#72AA4B" mask="url(#b)"/></g></svg>