<svg id="Layer_1" data-name="Layer 1" xmlns="http://www.w3.org/2000/svg" width="73.56" height="59.78" viewBox="0 0 73.56 59.78"><defs><style>.cls-1{fill:#fff}.cls-2{mask:url(#mask)}</style><mask id="mask" x="0" y="0" width="73.56" height="59.78" maskUnits="userSpaceOnUse"><g transform="translate(0 -.22)"><g id="b"><path id="a" class="cls-1" d="M0 60V.22h73.56V60z"/></g></g></mask></defs><title>twitter--white</title><path class="cls-2 cls-1" d="M73.56 7.3a30.17 30.17 0 0 1-8.67 2.38 15.14 15.14 0 0 0 6.64-8.35A30.22 30.22 0 0 1 61.94 5a15.11 15.11 0 0 0-25.71 13.75A42.85 42.85 0 0 1 5.12 3a15.1 15.1 0 0 0 4.67 20.13A15 15 0 0 1 3 21.24c0 .06 0 .13 0 .19a15.1 15.1 0 0 0 12.1 14.8 15.11 15.11 0 0 1-6.82.26A15.1 15.1 0 0 0 22.34 47 30.28 30.28 0 0 1 3.6 53.43a30.7 30.7 0 0 1-3.6-.21A42.72 42.72 0 0 0 23.13 60c27.76 0 42.94-23 42.94-42.94q0-1 0-2a30.67 30.67 0 0 0 7.49-7.76" transform="translate(0 -.22)"/></svg>