<?xml version="1.0" encoding="UTF-8"?>
<svg width="1530px" height="592px" viewBox="0 0 1530 592" version="1.1" xmlns="http://www.w3.org/2000/svg" xmlns:xlink="http://www.w3.org/1999/xlink">
    <!-- Generator: Sketch 43.2 (39069) - http://www.bohemiancoding.com/sketch -->
    <title>Front-Illustration</title>
    <desc>Created with Sketch.</desc>
    <defs></defs>
    <g id="Home" stroke="none" stroke-width="1" fill="none" fill-rule="evenodd">
        <g id="Homepage-" transform="translate(0.000000, -506.000000)">
            <g id="Front-Illustration" transform="translate(-5.000000, 506.000000)">
                <rect id="Rectangle-Copy" fill="#A4C68C" x="0" y="266" width="1535" height="326"></rect>
                <g id="Group-2" transform="translate(0.000000, 423.000000)">
                    <rect id="Rectangle-5" fill="#E5E5E5" x="0" y="0" width="1535" height="110"></rect>
                    <rect id="Rectangle-5" fill="#FFFFFF" x="105" y="48" width="168" height="10"></rect>
                    <rect id="Rectangle-5-Copy-2" fill="#FFFFFF" x="761" y="48" width="168" height="10"></rect>
                    <rect id="Rectangle-5-Copy" fill="#FFFFFF" x="433" y="48" width="168" height="10"></rect>
                    <rect id="Rectangle-5-Copy-3" fill="#FFFFFF" x="1089" y="48" width="168" height="10"></rect>
                    <rect id="Rectangle-5-Copy-4" fill="#FFFFFF" x="1417" y="48" width="118" height="10"></rect>
                </g>
                <g id="Group-12" transform="translate(153.000000, 331.000000)">
                    <g id="Group-11">
                        <rect id="Rectangle-4" fill="#FFDA78" x="-5.68434189e-14" y="95.6801758" width="212.886859" height="165.319824"></rect>
                        <g id="Group-6" transform="translate(32.571429, 132.675000)">
                            <rect id="Rectangle-10" fill="#FFFFFF" x="0" y="0" width="52.7231486" height="35.8875"></rect>
                            <rect id="Rectangle-10" fill="#FFDA78" x="25.4089552" y="0" width="2.38208955" height="35.8875"></rect>
                            <polyline id="Rectangle-10" fill="#FFDA78" points="53.2 16.7475 53.2 19.14 0 19.14 0 16.7475"></polyline>
                        </g>
                        <g id="Group-6-Copy-2" transform="translate(32.571429, 206.625000)">
                            <rect id="Rectangle-10" fill="#FFFFFF" x="0" y="0" width="52.7231486" height="35.8875"></rect>
                            <rect id="Rectangle-10" fill="#FFDA78" x="25.4089552" y="0" width="2.38208955" height="35.8875"></rect>
                            <polyline id="Rectangle-10" fill="#FFDA78" points="53.2 16.7475 53.2 19.14 0 19.14 0 16.7475"></polyline>
                        </g>
                        <g id="Group-6-Copy" transform="translate(127.028571, 132.675000)">
                            <rect id="Rectangle-10" fill="#FFFFFF" x="0" y="0" width="52.7231486" height="35.8875"></rect>
                            <rect id="Rectangle-10" fill="#FFDA78" x="25.4089552" y="0" width="2.38208955" height="35.8875"></rect>
                            <polyline id="Rectangle-10" fill="#FFDA78" points="53.2 16.7475 53.2 19.14 0 19.14 0 16.7475"></polyline>
                        </g>
                        <rect id="Rectangle-11" fill="#FFFFFF" x="137.885714" y="206.625" width="31.4857143" height="54.375"></rect>
                        <polygon id="Triangle" fill="#B5CDFF" points="106.44343 0 212.886859 95.7 0 95.7"></polygon>
                    </g>
                    <g id="Group-10" transform="translate(212.800000, 31.537500)">
                        <rect id="Rectangle-4-Copy" fill="#B5CDFF" x="0" y="95.2228027" width="129.2" height="134.239697"></rect>
                        <g id="Group-6" transform="translate(28.228571, 114.187500)">
                            <rect id="Rectangle-10" fill="#FFFFFF" x="0" y="0" width="72.0908359" height="46.7625"></rect>
                            <rect id="Rectangle-10" fill="#B5CDFF" x="19.5428571" y="0" width="3.25714286" height="46.7625"></rect>
                            <polyline id="Rectangle-10" fill="#B5CDFF" points="72.0908359 13.05 72.0908359 16.3125 0 16.3125 0 13.05"></polyline>
                        </g>
                        <rect id="Rectangle-11" fill="#FFFFFF" x="48.8571429" y="182.7" width="31.4857143" height="46.7625"></rect>
                        <polygon id="Triangle" fill="#FFDA78" points="64.6 0 129.2 95.7 0 95.7"></polygon>
                    </g>
                </g>
                <g id="Group-13" transform="translate(1059.000000, 0.000000)">
                    <rect id="Rectangle-12" fill="#FFE4BF" x="56" y="104" width="60" height="134"></rect>
                    <path d="M85.944461,86.932474 C85.9632146,87.0160314 85.9817279,87.0996797 86,87.1834181 C86.0187369,87.0975494 86.0377275,87.0117754 86.0569708,86.9260971 C86.0194802,86.9282702 85.9819769,86.9303959 85.944461,86.932474 Z M41.055539,53.067526 C40.3645907,49.9889941 40,46.7870744 40,43.5 C40,19.4756134 59.4756134,0 83.5,0 C107.524387,0 127,19.4756134 127,43.5 C127,46.7893441 126.634906,49.9934159 125.943029,53.0739029 C126.789092,53.0248612 127.641643,53 128.5,53 C152.524387,53 172,72.4756134 172,96.5 C172,120.524387 152.524387,140 128.5,140 C107.67347,140 90.2653452,125.364069 86,105.816582 C81.7346548,125.364069 64.3265298,140 43.5,140 C19.4756134,140 0,120.524387 0,96.5 C0,73.2959352 18.1683156,54.3353079 41.055539,53.067526 Z" id="Combined-Shape" fill="#B8DD9E"></path>
                </g>
                <g id="Group-9" transform="translate(1020.000000, 102.000000)">
                    <g id="Group-8" transform="translate(0.000000, 33.692946)">
                        <rect id="Rectangle-4-Copy" fill="#FFDA78" x="0.58044164" y="101.078838" width="138.14511" height="143.414376"></rect>
                        <g id="Group-6" transform="translate(30.763407, 121.991701)">
                            <rect id="Rectangle-10" fill="#FFFFFF" x="0" y="0" width="77.0820161" height="49.9585062"></rect>
                            <rect id="Rectangle-10" fill="#FFDA78" x="52.2397476" y="0" width="3.48264984" height="49.9585062"></rect>
                            <polyline id="Rectangle-10" fill="#FFDA78" points="77.0820161 13.9419087 77.0820161 17.4273859 0 17.4273859 0 13.9419087"></polyline>
                        </g>
                        <rect id="Rectangle-11" fill="#FFFFFF" x="52.8201893" y="195.186722" width="33.6656151" height="49.9585062"></rect>
                        <polygon id="Triangle" fill="#B5CDFF" points="69.6529968 0 138.725552 102.240664 0.58044164 102.240664"></polygon>
                    </g>
                    <g id="Group-7" transform="translate(138.305994, 0.000000)">
                        <rect id="Rectangle-4" fill="#B5CDFF" x="-7.10542736e-14" y="102.240664" width="227.625996" height="176.618689"></rect>
                        <g id="Group-6" transform="translate(34.826498, 141.742739)">
                            <rect id="Rectangle-10" fill="#FFFFFF" x="0" y="0" width="56.3734148" height="38.340249"></rect>
                            <rect id="Rectangle-10" fill="#B5CDFF" x="27.1681341" y="0" width="2.54701257" height="38.340249"></rect>
                            <polyline id="Rectangle-10" fill="#B5CDFF" points="56.8832808 17.8921162 56.8832808 20.4481328 0 20.4481328 0 17.8921162"></polyline>
                        </g>
                        <g id="Group-6-Copy-2" transform="translate(135.823344, 220.746888)">
                            <rect id="Rectangle-10" fill="#FFFFFF" x="0" y="0" width="56.3734148" height="38.340249"></rect>
                            <rect id="Rectangle-10" fill="#B5CDFF" x="27.1681341" y="0" width="2.54701257" height="38.340249"></rect>
                            <polyline id="Rectangle-10" fill="#B5CDFF" points="56.8832808 17.8921162 56.8832808 20.4481328 0 20.4481328 0 17.8921162"></polyline>
                        </g>
                        <g id="Group-6-Copy" transform="translate(135.823344, 141.742739)">
                            <rect id="Rectangle-10" fill="#FFFFFF" x="0" y="0" width="56.3734148" height="38.340249"></rect>
                            <rect id="Rectangle-10" fill="#B5CDFF" x="27.1681341" y="0" width="2.54701257" height="38.340249"></rect>
                            <polyline id="Rectangle-10" fill="#B5CDFF" points="56.8832808 17.8921162 56.8832808 20.4481328 0 20.4481328 0 17.8921162"></polyline>
                        </g>
                        <rect id="Rectangle-11" fill="#FFFFFF" x="46.4353312" y="220.746888" width="33.6656151" height="58.0912863"></rect>
                        <polygon id="Triangle" fill="#FFDA78" points="113.812998 0 227.625996 102.240664 0 102.240664"></polygon>
                    </g>
                </g>
                <g id="Group-13" transform="translate(380.000000, 114.000000)">
                    <rect id="Rectangle-12" fill="#FFE4BF" x="56" y="104" width="60" height="134"></rect>
                    <path d="M85.944461,86.932474 C85.9632146,87.0160314 85.9817279,87.0996797 86,87.1834181 C86.0187369,87.0975494 86.0377275,87.0117754 86.0569708,86.9260971 C86.0194802,86.9282702 85.9819769,86.9303959 85.944461,86.932474 Z M41.055539,53.067526 C40.3645907,49.9889941 40,46.7870744 40,43.5 C40,19.4756134 59.4756134,0 83.5,0 C107.524387,0 127,19.4756134 127,43.5 C127,46.7893441 126.634906,49.9934159 125.943029,53.0739029 C126.789092,53.0248612 127.641643,53 128.5,53 C152.524387,53 172,72.4756134 172,96.5 C172,120.524387 152.524387,140 128.5,140 C107.67347,140 90.2653452,125.364069 86,105.816582 C81.7346548,125.364069 64.3265298,140 43.5,140 C19.4756134,140 0,120.524387 0,96.5 C0,73.2959352 18.1683156,54.3353079 41.055539,53.067526 Z" id="Combined-Shape" fill="#B8DD9E"></path>
                </g>
                <g id="Group-13" transform="translate(1145.000000, 354.000000)">
                    <rect id="Rectangle-12" fill="#FFE4BF" x="56" y="104" width="60" height="134"></rect>
                    <path d="M85.944461,86.932474 C85.9632146,87.0160314 85.9817279,87.0996797 86,87.1834181 C86.0187369,87.0975494 86.0377275,87.0117754 86.0569708,86.9260971 C86.0194802,86.9282702 85.9819769,86.9303959 85.944461,86.932474 Z M41.055539,53.067526 C40.3645907,49.9889941 40,46.7870744 40,43.5 C40,19.4756134 59.4756134,0 83.5,0 C107.524387,0 127,19.4756134 127,43.5 C127,46.7893441 126.634906,49.9934159 125.943029,53.0739029 C126.789092,53.0248612 127.641643,53 128.5,53 C152.524387,53 172,72.4756134 172,96.5 C172,120.524387 152.524387,140 128.5,140 C107.67347,140 90.2653452,125.364069 86,105.816582 C81.7346548,125.364069 64.3265298,140 43.5,140 C19.4756134,140 0,120.524387 0,96.5 C0,73.2959352 18.1683156,54.3353079 41.055539,53.067526 Z" id="Combined-Shape" fill="#B8DD9E"></path>
                </g>
                <g id="Group-14" transform="translate(664.000000, 338.000000)">
                    <path d="M228.73425,68 C252.2654,68 273.137352,50.5899957 257.051758,45.5498047 C240.966164,40.5096137 234.737131,12.9299481 218.799031,23.2040033 C202.860931,33.4780584 192.214844,40.0722715 192.214844,52.3198064 C192.214844,64.5673413 205.203101,68 228.73425,68 Z" id="Oval-9" fill="#686868"></path>
                    <path d="M159.413409,50 L295.481888,50 C306.532003,50 315.489891,58.9515005 315.489891,69.999532 L315.489891,94.500468 C315.489891,95.1360229 315.460262,95.7646537 315.402307,96.3850529 C319.218189,97.5242051 322,101.061364 322,105.25 C322,110.358634 317.855312,114.5 312.753422,114.5 L9.24657803,114.5 C4.139834,114.5 0,110.359757 0,105.25 C0,101.242597 2.55039951,97.8303951 6.1126089,96.5455207 C6.04431569,95.8731397 6.00933126,95.1908978 6.00933126,94.500468 L6.00933126,69.999532 C6.00933126,58.9540955 14.9584163,50 26.0173345,50 L64.1291499,50 C64.1835038,48.8977317 64.573976,47.6697593 65.3344029,46.3760179 L87.5240487,8.62398206 C90.3235514,3.86108829 97.0649425,1.56320691e-13 102.594825,1.56320569e-13 L150.747782,1.56319511e-13 C156.27164,1.5631939e-13 160.749611,4.47756108 160.749611,9.99197199 L160.749611,45.008028 C160.749611,46.8263448 160.263215,48.5312215 159.413409,50 Z" id="Combined-Shape" fill="#72AA4B"></path>
                    <ellipse id="Oval-8" fill="#B2B2B2" cx="77.1197512" cy="114.5" rx="28.5443235" ry="28.5"></ellipse>
                    <ellipse id="Oval-8-Copy" fill="#B2B2B2" cx="242.877138" cy="114.5" rx="28.5443235" ry="28.5"></ellipse>
                    <ellipse id="Oval-8" fill="#E5E5E5" cx="77.1197512" cy="114.5" rx="15.0233281" ry="15"></ellipse>
                    <ellipse id="Oval-8-Copy-2" fill="#E5E5E5" cx="242.877138" cy="114.5" rx="15.0233281" ry="15"></ellipse>
                    <path d="M93.6157313,10.890238 C94.936101,8.46557649 98.2501938,6.5 101.014199,6.5 L149.143651,6.5 C151.909342,6.5 154.151377,8.74714872 154.151377,11.4900031 L154.151377,45.0099969 C154.151377,47.7658995 151.920096,50 149.15553,50 L77.3140293,50 C74.5548993,50 73.3897932,48.0321471 74.7089234,45.609762 L93.6157313,10.890238 Z" id="Rectangle-16" fill="#FCFCFC"></path>
                </g>
            </g>
        </g>
    </g>
</svg>