<?xml version="1.0" standalone="no"?>
<!DOCTYPE svg PUBLIC "-//W3C//DTD SVG 20010904//EN"
 "http://www.w3.org/TR/2001/REC-SVG-20010904/DTD/svg10.dtd">
<svg version="1.0" xmlns="http://www.w3.org/2000/svg"
 width="700.000000pt" height="700.000000pt" viewBox="0 0 700.000000 700.000000"
 preserveAspectRatio="xMidYMid meet">
<metadata>
Created by potrace 1.11, written by Peter Selinger 2001-2013
</metadata>
<g transform="translate(0.000000,700.000000) scale(0.100000,-0.100000)"
fill="#000000" stroke="none">
<path d="M0 3500 l0 -3500 3500 0 3500 0 0 3500 0 3500 -3500 0 -3500 0 0
-3500z m2330 1386 c91 -25 216 -87 274 -136 160 -133 239 -314 239 -545 0
-199 -51 -339 -170 -466 -77 -81 -155 -130 -264 -166 -46 -15 -85 -28 -87 -29
-3 -1 459 -750 526 -851 l14 -23 -228 0 -229 0 -245 415 -245 415 -197 0 -198
0 0 -415 0 -415 -195 0 -195 0 0 1121 0 1120 568 -3 c508 -4 574 -6 632 -22z
m3307 -1081 c238 -605 435 -1108 439 -1117 5 -17 -10 -18 -218 -18 l-223 0
-81 213 -81 212 -515 3 -514 2 -81 -212 -81 -213 -226 -3 -225 -2 39 97 c76
196 809 2059 825 2101 l17 42 247 -2 246 -3 432 -1100z m-2137 -726 c161 -73
195 -265 68 -386 -69 -66 -164 -81 -253 -39 -60 28 -87 56 -114 116 -86 189
113 394 299 309z"/>
<path d="M1520 4206 l0 -356 290 0 c293 0 355 6 435 40 61 27 127 91 160 156
27 54 30 68 30 159 0 87 -3 107 -26 155 -36 73 -90 127 -169 164 l-65 31 -327
3 -328 3 0 -355z"/>
<path d="M4762 3996 c-106 -281 -195 -521 -198 -533 l-6 -23 402 0 c379 0 402
1 395 18 -3 9 -92 244 -197 522 -104 278 -193 510 -196 516 -4 7 -94 -218
-200 -500z"/>
</g>
</svg>
